<svg version="1" xmlns="http://www.w3.org/2000/svg" width="356" height="356" viewBox="0 0 267.000000 267.000000"><path d="M83.7 21.1C71 22.9 54.2 29.6 43 37.3 35.1 42.8 22.6 56.2 17.2 65c-6.5 10.5-10.7 20.6-14 33.5-2.2 8.6-2.6 12.2-2.6 26-.1 20.5 1.4 29.2 7.6 45 5.5 14.1 13.3 25.7 25.7 38.2 4.5 4.5 10.6 10.1 13.6 12.3 12.5 9.2 29.8 16 45.3 17.8 16.9 2 33.1-.1 49.7-6.3 5.3-2 10.1-3.3 10.7-2.9.6.4 2.5 2.3 4.2 4.3 9.5 10.9 12.1 13.2 14.2 12.7 1.1-.3 3.9-.8 6-1.1 2.1-.3 7.7-1.2 12.4-2.1 4.7-.8 11.6-2 15.4-2.7l6.9-1.2-15.2-17.7-15.2-17.7 5.5-8.1c16.5-24.5 22.2-59.4 14.7-90.6-4.9-20.4-13.3-35.3-29.4-52-16.9-17.7-33.6-27-55.3-30.8-8.6-1.5-24.6-1.8-33.7-.5zm35 57.9c17.4 4.8 27.5 17.1 30.9 37.5 1 6 .7 17.4-.6 23-1.2 5.4-5.9 16.5-6.9 16.5-.3 0-3.1-2.9-6.1-6.5l-5.5-6.5-7.1.5c-3.9.3-7.9.7-9 .9-1 .2-7.9 1.2-15.2 2.2-7.3.9-13.1 2.1-13 2.5.2.5 6 7.6 13 15.8l12.7 15-3.7.7c-10.4 2-23.1-.1-32.2-5.3-20.8-11.9-27.3-46.2-13.7-71.7C68.5 92 81.2 81.9 93.7 78.5c6.8-1.7 17.6-1.6 25 .5zM218.7 27.5c-.2.5-.4 32-.3 70l.1 69 2.8.3c1.7.2 2.7.8 2.4 1.5-.2.7-.1 2.1.3 3.2.7 1.9 1.6 2 20.4 2H264V33.2l-2.5.3c-1.4.1-2.6-.3-2.6-.9-.1-.6-.2-2.2-.3-3.6l-.1-2.4-19.7-.1c-12.3 0-19.9.4-20.1 1zM233.6 184.7c-10.4 3.1-17.3 14.4-16.4 26.8.7 8.4 3 12.8 10.7 20.6 5.1 5.1 7.6 6.8 11.1 7.7 8.5 2 15.8-.4 21.6-7.1 4.3-5.1 6.4-11.9 6-20-.3-7.5-2.8-12.7-9.4-19.8-7.8-8.5-14.6-10.8-23.6-8.2z"/></svg>